<svg xmlns="http://www.w3.org/2000/svg" width="1200" height="650" viewBox="0 0 1200 650">
  <rect width="100%" height="100%" fill="#ffffff" />
  <text x="80" y="30" font-size="22" font-weight="bold" fill="#111827">Requests Over Time</text>
  <rect x="80" y="18" width="14" height="14" fill="#0f766e" /><text x="102" y="30" font-size="14" fill="#111827">Browse And Write</text><rect x="80" y="42" width="14" height="14" fill="#b45309" /><text x="102" y="54" font-size="14" fill="#111827">Search</text><rect x="80" y="66" width="14" height="14" fill="#1d4ed8" /><text x="102" y="78" font-size="14" fill="#111827">View Issue</text>
  <rect x="80" y="70" width="1090" height="490" fill="none" stroke="#9ca3af" stroke-width="1.5" />
  <line x1="80.00" y1="70" x2="80.00" y2="560" stroke="#e5e7eb" stroke-width="1" /><text x="80.00" y="582" text-anchor="middle" font-size="12" fill="#374151">0m</text><line x1="298.00" y1="70" x2="298.00" y2="560" stroke="#e5e7eb" stroke-width="1" /><text x="298.00" y="582" text-anchor="middle" font-size="12" fill="#374151">0m</text><line x1="516.00" y1="70" x2="516.00" y2="560" stroke="#e5e7eb" stroke-width="1" /><text x="516.00" y="582" text-anchor="middle" font-size="12" fill="#374151">0m</text><line x1="734.00" y1="70" x2="734.00" y2="560" stroke="#e5e7eb" stroke-width="1" /><text x="734.00" y="582" text-anchor="middle" font-size="12" fill="#374151">1m</text><line x1="952.00" y1="70" x2="952.00" y2="560" stroke="#e5e7eb" stroke-width="1" /><text x="952.00" y="582" text-anchor="middle" font-size="12" fill="#374151">1m</text><line x1="1170.00" y1="70" x2="1170.00" y2="560" stroke="#e5e7eb" stroke-width="1" /><text x="1170.00" y="582" text-anchor="middle" font-size="12" fill="#374151">1m</text><line x1="80" y1="560.00" x2="1170" y2="560.00" stroke="#e5e7eb" stroke-width="1" /><text x="70" y="564.00" text-anchor="end" font-size="12" fill="#374151">0</text><line x1="80" y1="462.00" x2="1170" y2="462.00" stroke="#e5e7eb" stroke-width="1" /><text x="70" y="466.00" text-anchor="end" font-size="12" fill="#374151">19</text><line x1="80" y1="364.00" x2="1170" y2="364.00" stroke="#e5e7eb" stroke-width="1" /><text x="70" y="368.00" text-anchor="end" font-size="12" fill="#374151">38</text><line x1="80" y1="266.00" x2="1170" y2="266.00" stroke="#e5e7eb" stroke-width="1" /><text x="70" y="270.00" text-anchor="end" font-size="12" fill="#374151">56</text><line x1="80" y1="168.00" x2="1170" y2="168.00" stroke="#e5e7eb" stroke-width="1" /><text x="70" y="172.00" text-anchor="end" font-size="12" fill="#374151">75</text><line x1="80" y1="70.00" x2="1170" y2="70.00" stroke="#e5e7eb" stroke-width="1" /><text x="70" y="74.00" text-anchor="end" font-size="12" fill="#374151">94</text>
  <polyline fill="none" stroke="#0f766e" stroke-width="3" points="80.00,252.45 1170.00,544.36" /><polyline fill="none" stroke="#b45309" stroke-width="3" points="80.00,455.74" /><polyline fill="none" stroke="#1d4ed8" stroke-width="3" points="80.00,70.00 1170.00,549.57" />
  <text x="625.00" y="620" text-anchor="middle" font-size="13" fill="#374151">Minutes since test start</text>
  <text x="24" y="315.00" transform="rotate(-90 24 315.00)" text-anchor="middle" font-size="13" fill="#374151">Requests per minute</text>
</svg>
